<?xml version="1.0" standalone="no"?><!DOCTYPE svg PUBLIC "-//W3C//DTD SVG 1.1//EN" "http://www.w3.org/Graphics/SVG/1.1/DTD/svg11.dtd"><svg t="1551864765021" class="icon" style="" viewBox="0 0 1024 1024" version="1.1" xmlns="http://www.w3.org/2000/svg" p-id="1917" xmlns:xlink="http://www.w3.org/1999/xlink" width="200" height="200"><defs><style type="text/css"></style></defs><path d="M334.181 193c28.475 0.36 62.279 18.75 77.312 34.542l-1.017 12.191c-20.549 8.363-40.176 29.713-45.777 51.813l3.052 3.047c15.588-0.399 71.665 3.325 82.399-1.016 14.826-5.995 22.146-40.475 42.725-35.557 14.889 3.825 41.501 36.533 52.898 47.749 0.271 8.553-1.052 12.609-4.069 17.27-33.544 8.912-82.413-2.505-119.021 4.064v5.08c39.524 20.275 32.167 60.751-2.034 80.259v5.079c14.822 21.709 23.216 34.496 8.138 64.004 18.866 23.018 87.154 30.04 126.141 23.366 9.246-7.029 14.118-18.382 22.38-26.414 19.216-0.388 63.679 27.03 69.174 38.606v9.143c-3.362 6.947-12.625 11.554-18.311 16.255l-1.017 177.788c-3.469 9.584-15.862 9.199-19.328 19.303l2.035 1.016c20.844 4.576 64.393 15.833 83.415 5.08v-222.49c-3.085-20.62 6.278-46.439-2.034-61.972l-151.573-1.016c-14.146 0-47.511 4.918-52.898 3.048-8.652-3.935-19.238-17.179-20.345-28.446 1.535-3.789 1.65-5.092 5.086-7.111h27.466v-4.064c-25.382-9.343 4.737-35.645 12.208-46.733 21.836-32.41 45.108-64.003 62.053-102.609 10.619-24.194 14.739-55.587 29.501-76.195 19.526-1.033 67.215 22.182 78.329 34.541 0.086 5.388-0.534 8.149-2.034 11.176-18.664 6.055-40.354 19.658-41.708 41.653l3.052 2.032c9.655 3.869 24.824-0.861 33.569-1.016 10.112-0.179 27.689 3.832 39.674 2.032 18.639-2.799 28.11-30.406 43.742-39.622 15.379 4.359 71.795 49.037 65.105 66.036l-5.086 6.096h-141.4v4.063c10.908 16.961 28.131 22.208 32.552 47.749 5.452 31.49-36.167 60.212-60.018 43.685-10.381-28.892-10.961-73.333-31.536-92.45l-6.103 1.016c-13.464 23.756-84.242 90.898-110.882 99.562l1.017 4.064 183.108 1.015c14.717-11.674 17.178-29.676 36.622-37.589 19.344 2.183 55.385 35.826 67.139 48.765-1.113 21.74-20.878 16.727-25.431 31.494l1.017 239.76c0.002 29.523 3.918 68.048-8.138 86.354-8.627 13.099-27.599 16.379-43.743 22.351-12.207 4.516-26.581 14.25-42.725 10.159-22.204-58.19-25.845-41.322-73.243-69.083-1.723-7.703 0.362-9.174 1.017-18.287l-2.034-1.016c-5.108 1.56-16.158 5.274-23.398 4.064-9.832-7.489-8.889-16.808-11.19-30.478a3633.05 3633.05 0 0 0-3.051-1.016c-6.772-3.001-79.818-3.36-89.52 2.032-2.94 32.629-4.968 37.835-34.587 46.732-6.022 1.809-12.48 7.904-18.311 4.064-17.359-7.605-7.243-47.556-7.121-71.115l-1.017-192.012c-8.344-7.713-18.679-9.841-25.432-19.302l-10.172-24.383-23.397-31.494c-7.164-9.394-19.338-13.689-24.415-25.398-1.754-6.287 0.606-11.5 3.052-16.255 23.832-3.304 44.125 17.319 65.105 14.223v-6.095c-8.487-20.838-14.286-65.595-37.639-70.1-14.077-2.715-26.841 28.826-33.57 38.606-26.504 38.522-65.678 70.073-98.675 102.609-9.846 0.384-14.377-1.658-17.293-8.128-1.82-2.967-2.852-8.302-1.017-12.191l24.414-31.494 46.794-78.226 34.587-75.18c7.194-22.463 9.893-46.532 20.346-67.051l5.086-2.032z m339.767 59.94l3.052 1.016-1.017 2.032-3.052 1.016-2.034-1.016v-1.016l1.017-1.016 2.034-1.016zM292.473 446.983c24.607 4.54 54.139 13.336 71.209 26.415 0.908 15.732-8.947 14.839-12.207 25.398l1.017 217.41c0.002 19.939 5.505 77.305-2.035 89.402-8.56 13.735-41.906 28.496-64.087 24.382l-6.104-6.095c1.092-78.554 4.07-165.73 4.069-249.92 0-36.532-6.363-96.383 0-122.928l8.138-4.064z m394.7 21.335h2.034c-1.416 1.953-0.103 0.608-2.034 2.032v-2.032z m-213.626 65.02c-2.966 2.013-4.172 1.812-6.104 5.079-4.667 11.148-2.181 42.944 1.017 52.829 13.464 4.942 85.192 4.018 94.606-2.032 1.368-15.397 2.336-43.702-3.052-53.845l-86.467-2.031z m-2.035 89.402l-4.069 5.079c-4.431 14.677-2.909 47.973 5.086 53.845 27.459-6.856 70.568 7.908 90.537-4.064 2.223-12.634 1.987-45.565-4.069-54.86h-87.485z m202.436 116.832h2.035-2.035z" p-id="1918"></path></svg>