<?xml version="1.0" standalone="no"?><!DOCTYPE svg PUBLIC "-//W3C//DTD SVG 1.1//EN" "http://www.w3.org/Graphics/SVG/1.1/DTD/svg11.dtd"><svg t="1551867658035" class="icon" style="" viewBox="0 0 1024 1024" version="1.1" xmlns="http://www.w3.org/2000/svg" p-id="4596" xmlns:xlink="http://www.w3.org/1999/xlink" width="200" height="200"><defs><style type="text/css"></style></defs><path d="M845.248 466.048c-1.344 0-2.688-0.064-4.032-0.448-9.536-2.112-15.616-11.648-13.504-21.312 11.2-49.728 6.592-84.992-13.568-104.768-33.344-32.768-100.928-16.96-101.568-16.768-9.664 2.368-19.328-3.584-21.568-13.12-2.304-9.6 3.456-19.2 13.12-21.568 3.584-0.896 87.424-20.736 134.912 25.856 29.568 29.056 37.504 75.456 23.424 138.112-1.728 8.384-9.088 14.016-17.216 14.016z" fill="#2c2c2c" p-id="4597"></path><path d="M961.536 514.88c-1.344 0-2.56-0.128-3.968-0.32-12.928-2.176-21.696-14.464-19.584-27.328 20.032-121.088 3.84-205.888-48.192-252.224-80.256-71.296-223.616-30.784-225.088-30.4-12.544 3.648-25.728-3.648-29.44-16.192-3.584-12.544 3.648-25.728 16.32-29.504 6.784-2.048 169.6-48.32 269.76 40.384 65.216 57.856 86.656 157.312 63.68 295.616-1.984 11.712-12.032 19.968-23.488 19.968zM744.512 514.88s98.688-234.816-230.4-117.824c10.432-123.392-43.136-198.272-203.776-107.072 0 0-521.92 353.856-141.248 579.904 0 0 478.72 197.76 695.936-169.536 43.072-132.288-84.8-187.456-120.512-185.472zM435.648 869.44C277.312 887.552 139.136 817.152 127.104 712S233.6 506.944 391.936 488.832c158.4-18.24 296.576 52.224 308.608 157.312 12.096 105.088-106.56 205.12-264.896 223.296z" fill="#2c2c2c" p-id="4598"></path><path d="M550.144 680.384c-6.528-71.936-81.024-124.032-166.336-116.288-85.312 7.744-149.184 72.256-142.656 144.256 6.528 72 80.96 124.096 166.272 116.288 85.376-7.68 149.184-72.32 142.72-144.256z m-202.368 91.328c-26.368 0-47.808-19.968-47.808-44.544 0-24.576 21.44-44.608 47.808-44.608 26.496 0 47.872 20.032 47.872 44.608 0 24.576-21.44 44.544-47.872 44.544z m82.688-75.072c-11.84 0-21.44-9.536-21.44-21.376 0-11.904 9.6-21.504 21.44-21.504s21.44 9.6 21.44 21.504c0.064 11.776-9.6 21.376-21.44 21.376z" fill="#2c2c2c" p-id="4599"></path></svg>