<?xml version="1.0" standalone="no"?><!DOCTYPE svg PUBLIC "-//W3C//DTD SVG 1.1//EN" "http://www.w3.org/Graphics/SVG/1.1/DTD/svg11.dtd"><svg t="1551864914886" class="icon" style="" viewBox="0 0 1024 1024" version="1.1" xmlns="http://www.w3.org/2000/svg" p-id="2026" xmlns:xlink="http://www.w3.org/1999/xlink" width="200" height="200"><defs><style type="text/css"></style></defs><path d="M278.74 195.73c14.23-11.91 32.72-17.97 51.09-18.94-10.43 29.09-21.22 58.14-28.9 88.11 65.7 0.26 131.41-0.02 197.12 0.14 7.51-0.16 12.44 6.83 14.63 13.23 4.3 12.69 4.28 26.33 3.88 39.57-37.6 0.42-75.21-0.03-112.81 0.22-0.18 53.68-2.51 107.31-5.85 160.87 38.39 0.18 76.79 0.01 115.19 0.08 3.14-0.18 6.21 1.25 8.03 3.84 3.89 5.31 5.53 11.86 6.88 18.2 2.03 10.17 2.77 20.55 3.01 30.9-45.63 0.17-91.26-0.08-136.89 0.12-2.14 30.59-8.42 60.75-17.24 90.08 10.88-8.2 20.93-17.47 31.89-25.57 25.62 26.68 49.42 55.05 73.5 83.11 3.87 4.8 8.51 9.08 11.28 14.68 5.63 10.94 6.89 23.5 6.89 35.63-0.3 16.7-2.64 33.45-7.34 49.49-9.61-10.02-18-21.14-26.55-32.05-24.53-31.96-50.16-63.06-76.24-93.76-5.62-6.23-10.52-13.18-16.75-18.83-10.28 38.7-25.06 76.43-46.1 110.6-9.75 15.79-20.86 30.86-34.01 44.01-4.24 4.36-9.74 7.19-15.21 9.71-15.95 7.08-33.06 11.16-50.25 13.84-9.59 1.43-19.31 2.19-29 1.68-6.09-0.51-12.63-1.39-17.44-5.53 13.66-11.15 27.27-22.4 39.93-34.69 27.09-26.06 50.96-55.59 69.87-88.12 27.32-46.98 43.79-100.19 48.08-154.34-48.79-0.12-97.59 0.18-146.39-0.15 1.7-9.49 4.38-18.81 8.05-27.73 3.86-8.72 8.76-17.78 17.28-22.73 5.65-3.29 12.4-2.26 18.63-2.4 36.47-0.11 72.96 0.23 109.43-0.17 0.97-24.96 2.53-49.89 3.61-74.84 1.32-28.62 1.04-57.28 0.84-85.92-22.53-0.07-45.06-0.22-67.58 0.07-2.96 8.92-6.33 17.7-9.71 26.46-2.28 6.76-6.57 12.54-10.74 18.23-11.53 15.27-28.35 26.34-46.82 31.25-8.35 2.29-16.98 3.54-25.62 4.03 1.54-3.91 3.47-7.64 5.34-11.38 17.02-35.53 31.63-72.18 44.57-109.37 5.98-16.85 11.39-33.89 17.3-50.75 4.24-11.87 11.31-22.87 21.12-30.88zM564.02 265.92c-0.49-4.55 3.1-9.24 7.91-8.85 83.38-0.17 166.75 0.01 250.13-0.1 2.47 0.06 5.26-0.03 7.25 1.73 2.14 1.72 2.75 4.6 2.7 7.22-0.02 156.72-0.01 313.45-0.01 470.16 0.28 3.59-2.1 7.09-5.38 8.41-2.81 0.77-5.76 0.46-8.63 0.53-31.02-0.06-62.04 0.01-93.05-0.04-7.3-0.21-13.57 4.07-19.96 6.98-22.99 12.5-44.93 26.84-66.72 41.31-3.16 2.03-6.06 4.57-9.65 5.82-5.41-18.06-10.86-36.1-16.56-54.06-13.35-0.14-26.71 0.1-40.06-0.1-4.66 0.16-8.24-4.43-7.97-8.87 0.01-156.71 0.02-313.43 0-470.14m54.01 49.01c-0.07 123.38 0.01 246.77-0.04 370.15-0.29 2.82 1.02 6.22 4.12 6.73 5.88 0.52 11.81-0.03 17.71 0.27 3.58 14 7.27 27.98 10.81 42 3.34-1.27 6.3-3.3 9.3-5.2 18.88-11.77 37.84-23.42 56.68-35.27 1.59-1.03 3.4-1.73 5.33-1.61 16.04-0.01 32.09-0.01 48.13 0.02 2.14-0.12 4.75 0.16 6.36-1.59 1.5-1.34 1.51-3.5 1.59-5.34-0.05-123.39 0.03-246.77-0.04-370.16 0.47-3.39-2.56-6.27-5.91-5.9-49.37-0.05-98.76-0.04-148.14 0-3.28-0.3-6.4 2.52-5.9 5.9z" p-id="2027"></path></svg>